<?xml version="1.0" standalone="no"?>
<!DOCTYPE svg PUBLIC "-//W3C//DTD SVG 20010904//EN"
 "http://www.w3.org/TR/2001/REC-SVG-20010904/DTD/svg10.dtd">
<svg version="1.0" xmlns="http://www.w3.org/2000/svg"
 width="800.000000pt" height="800.000000pt" viewBox="0 0 800.000000 800.000000"
 preserveAspectRatio="xMidYMid meet">
<metadata>
Created by potrace 1.14, written by Peter Selinger 2001-2017
</metadata>
<g transform="translate(0.000000,800.000000) scale(0.100000,-0.100000)"
fill="#000000" stroke="none">
<path d="M4507 6584 c-1 -1 -26 -5 -55 -9 -70 -9 -140 -40 -169 -75 -7 -8 -13
-12 -13 -7 0 9 -110 -105 -110 -115 0 -18 -54 -85 -83 -103 -18 -10 -35 -24
-39 -30 -4 -5 -8 -7 -8 -3 0 6 -104 -52 -127 -71 -6 -6 -23 -13 -38 -17 -14
-3 -24 -9 -21 -12 3 -2 -29 -23 -72 -45 -42 -22 -80 -45 -84 -51 -4 -6 -8 -7
-8 -2 0 5 -6 4 -12 -2 -17 -13 -63 -38 -168 -92 -47 -24 -93 -50 -102 -58 -10
-8 -18 -12 -18 -8 0 3 -22 -10 -50 -29 -27 -19 -54 -35 -60 -35 -5 0 -10 -5
-10 -12 0 -6 -3 -9 -6 -5 -3 3 -16 -5 -28 -17 -11 -13 -26 -25 -32 -27 -43
-15 -213 -183 -279 -275 -11 -15 -26 -33 -32 -40 -7 -7 -13 -17 -13 -22 0 -5
-7 -15 -15 -22 -8 -7 -29 -38 -47 -69 -17 -31 -36 -59 -41 -62 -5 -3 -8 -10
-8 -15 2 -19 -11 -44 -21 -44 -6 0 -9 -3 -6 -6 4 -3 -4 -29 -17 -57 -20 -46
-35 -81 -40 -97 -1 -3 -5 -13 -9 -22 -8 -17 -14 -43 -15 -65 -1 -13 -44 -63
-55 -63 -4 0 -32 -16 -62 -35 -30 -19 -59 -35 -64 -35 -6 0 -10 -4 -10 -8 0
-5 -10 -14 -22 -19 -37 -18 -67 -43 -145 -121 -39 -41 -75 -82 -78 -93 -4 -10
-10 -19 -16 -19 -8 0 -34 -50 -47 -90 -6 -18 -6 -219 0 -240 3 -8 16 -38 30
-67 22 -45 24 -54 12 -64 -14 -12 -81 -14 -499 -19 -60 -1 -114 0 -120 1 -5 1
-13 1 -16 1 -35 -5 -63 -14 -109 -36 -29 -14 -60 -26 -67 -26 -7 0 -13 -4 -13
-9 0 -5 -9 -12 -19 -16 -25 -7 -99 -78 -130 -123 -25 -36 -40 -89 -48 -162 -8
-81 -8 -1292 0 -1297 4 -2 5 -8 3 -12 -4 -7 0 -28 19 -91 16 -53 117 -180 143
-180 5 0 12 -6 15 -13 4 -12 92 -49 132 -55 11 -2 73 -4 137 -5 64 -1 120 -6
124 -10 4 -4 8 -74 9 -155 1 -141 15 -232 37 -232 5 0 18 -8 28 -18 24 -22 46
-24 342 -26 144 0 228 -5 228 -11 0 -7 3 -7 8 0 9 13 52 15 52 3 0 -5 9 -4 19
2 14 7 22 7 26 0 4 -6 10 -8 15 -5 4 3 22 -19 38 -47 63 -112 142 -158 267
-154 74 1 85 5 138 39 31 20 57 41 57 47 0 5 12 13 28 17 38 10 46 10 54 -2 5
-6 8 -6 8 2 0 14 53 1 74 -19 7 -7 24 -20 36 -28 12 -8 29 -21 36 -28 8 -7 14
-11 14 -8 0 3 18 -1 40 -9 26 -9 64 -12 112 -9 314 20 904 20 936 0 21 -13
138 -7 182 8 25 9 49 18 55 19 5 1 15 7 21 12 6 6 22 17 34 25 12 8 29 21 36
28 18 18 74 27 74 13 0 -6 7 -11 16 -11 8 0 13 -4 10 -8 -3 -5 6 -15 19 -22
14 -7 25 -17 25 -21 0 -4 20 -13 45 -20 25 -7 45 -16 45 -19 0 -3 28 -7 61 -8
122 -5 235 63 294 178 14 28 19 30 73 31 345 3 788 8 790 10 1 1 5 2 10 3 12
2 57 36 48 36 -5 0 0 8 11 17 31 27 36 56 37 215 1 81 5 150 9 154 4 5 60 9
125 10 64 1 117 3 117 4 0 1 11 3 25 4 66 6 143 44 201 99 34 33 104 126 102
137 -1 6 4 23 14 48 4 9 7 37 8 63 1 25 5 50 8 56 4 7 3 14 -3 18 -6 4 -7 12
0 24 6 12 5 22 -1 28 -8 8 -7 17 1 33 8 14 8 25 1 33 -6 8 -6 18 -1 27 5 9 5
19 -1 27 -7 8 -7 18 1 32 7 15 7 21 0 21 -7 0 -7 6 0 21 8 14 8 24 1 32 -6 8
-6 18 -1 27 5 9 5 19 -1 27 -7 8 -7 18 1 32 7 15 8 27 0 40 -7 14 -7 22 0 26
8 5 8 11 0 20 -8 10 -8 19 0 35 8 16 8 25 0 35 -8 9 -8 15 0 20 7 4 6 13 -2
28 -12 23 -12 25 4 44 6 8 6 19 -1 32 -8 14 -8 22 -1 26 8 5 7 11 -1 21 -9 11
-9 14 0 14 9 0 9 5 1 20 -6 11 -8 20 -5 20 8 0 -30 70 -52 96 -10 12 -33 30
-52 39 -19 9 -39 22 -46 28 -13 13 -8 50 6 41 5 -3 9 0 9 5 0 6 6 11 13 11 7
0 28 11 47 25 19 14 30 25 25 25 -5 0 -2 6 7 13 30 24 41 96 21 139 -8 15 -13
30 -13 33 1 9 -30 65 -48 87 -39 49 -146 148 -160 148 -4 0 -17 9 -29 19 -11
10 -51 33 -89 51 -38 18 -78 36 -89 42 -12 5 -27 10 -35 11 -8 2 -21 6 -27 10
-7 5 -13 6 -13 3 0 -2 -15 0 -32 5 -45 14 -128 23 -223 22 -81 0 -192 -10
-205 -18 -4 -3 -24 -7 -44 -10 -34 -6 -42 -1 -37 28 0 4 -2 7 -6 7 -5 0 -9 16
-10 37 -1 20 -8 40 -15 44 -7 5 -9 9 -5 9 5 0 1 13 -8 28 -21 34 -82 73 -155
98 -30 10 -57 21 -60 24 -3 3 -10 6 -16 7 -6 1 -22 4 -35 7 -13 2 -35 8 -49
14 -23 9 -100 31 -117 34 -26 3 -116 39 -126 50 -7 7 -21 31 -32 53 -11 22
-22 42 -25 45 -5 5 -50 88 -85 155 -11 22 -22 42 -25 45 -3 3 -21 36 -40 73
-40 80 -43 136 -15 257 3 14 8 41 10 60 5 37 13 75 15 75 1 0 3 16 6 35 2 19
6 42 7 50 3 19 22 53 28 49 5 -3 88 49 105 65 6 6 23 20 38 31 15 11 64 55
108 98 44 42 84 77 89 77 5 0 8 4 6 8 -1 5 20 30 46 55 26 26 45 47 41 47 -4
0 5 9 20 21 14 11 26 24 26 29 0 5 12 22 26 37 40 42 97 170 96 218 0 53 -5
85 -12 85 -3 0 -7 10 -7 22 -1 13 -7 24 -13 26 -5 2 -10 10 -10 18 0 22 -63
93 -110 124 -12 8 -28 21 -36 28 -7 6 -19 12 -27 12 -9 0 -17 4 -19 8 -1 5
-29 21 -61 36 -32 15 -61 34 -64 42 -3 7 -9 14 -14 14 -6 0 -22 13 -38 29 -15
16 -58 43 -95 60 -85 41 -194 49 -268 20 -63 -24 -95 -26 -142 -6 -21 9 -42
14 -47 11 -5 -3 -9 -2 -9 3 0 4 -12 9 -27 10 -16 0 -45 3 -66 5 -20 3 -38 3
-40 2z"/>
</g>
</svg>
